<svg width="1080" height="644" viewBox="0 0 1080 644" fill="none" xmlns="http://www.w3.org/2000/svg">
    <rect width="1080" height="644" fill="white" />
    <g clip-path="url(#clip0_1178_2)">
        <path
            d="M871.521 307.877C848.056 319.509 816.913 304.552 816.913 304.552C816.913 304.552 823.834 270.742 847.312 259.126C870.777 247.494 901.908 262.434 901.908 262.434C901.908 262.434 894.986 296.244 871.521 307.877Z"
            fill="url(#paint0_linear_1178_2)" />
        <path
            d="M219.186 373.297C249.846 391.661 293.833 374.685 293.833 374.685C293.833 374.685 288.081 327.943 257.404 309.601C226.744 291.237 182.776 308.192 182.776 308.192C182.776 308.192 188.527 354.933 219.186 373.297Z"
            fill="url(#paint1_linear_1178_2)" />
        <path
            d="M797.38 139.287C790.304 139.287 784.568 145.019 784.568 152.09C784.568 159.162 790.304 164.894 797.38 164.894C804.456 164.894 810.192 159.162 810.192 152.09C810.192 145.019 804.456 139.287 797.38 139.287Z"
            fill="#FC4706" />
        <path
            d="M783.83 312.068C775.87 312.068 769.416 318.517 769.416 326.473C769.416 334.428 775.87 340.877 783.83 340.877C791.791 340.877 798.244 334.428 798.244 326.473C798.244 318.517 791.791 312.068 783.83 312.068Z"
            fill="#FC4706" />
        <path
            d="M246.798 190.589C240.164 190.589 234.786 185.215 234.786 178.585C234.786 171.956 240.164 166.582 246.798 166.582C253.432 166.582 258.81 171.956 258.81 178.585C258.81 185.215 253.432 190.589 246.798 190.589Z"
            fill="#FC4706" />
        <path
            d="M359.334 500.925C356.239 500.925 353.729 498.417 353.729 495.323C353.729 492.23 356.239 489.722 359.334 489.722C362.43 489.722 364.939 492.23 364.939 495.323C364.939 498.417 362.43 500.925 359.334 500.925Z"
            fill="#FC4706" />
        <path
            d="M708.955 484.756C704.975 484.756 701.748 481.531 701.748 477.553C701.748 473.576 704.975 470.351 708.955 470.351C712.935 470.351 716.162 473.576 716.162 477.553C716.162 481.531 712.935 484.756 708.955 484.756Z"
            fill="#E1E4E5" />
        <path
            d="M258.257 446.191C252.508 446.191 247.848 441.533 247.848 435.788C247.848 430.042 252.508 425.385 258.257 425.385C264.006 425.385 268.667 430.042 268.667 435.788C268.667 441.533 264.006 446.191 258.257 446.191Z"
            fill="#E1E4E5" />
        <path
            d="M486.762 206.19C482.386 206.19 478.839 202.645 478.839 198.272C478.839 193.899 482.386 190.354 486.762 190.354C491.138 190.354 494.686 193.899 494.686 198.272C494.686 202.645 491.138 206.19 486.762 206.19Z"
            fill="#E1E4E5" />
        <path
            d="M556.371 326.827C551.506 326.827 547.562 322.886 547.562 318.024C547.562 313.162 551.506 309.221 556.371 309.221C561.236 309.221 565.18 313.162 565.18 318.024C565.18 322.886 561.236 326.827 556.371 326.827Z"
            fill="#E1E4E5" />
        <path
            d="M596.608 162.77C597.739 166.987 595.235 171.321 591.016 172.451C586.796 173.581 582.459 171.078 581.328 166.862C580.198 162.645 582.702 158.311 586.921 157.181C591.141 156.051 595.478 158.553 596.608 162.77Z"
            fill="#E1E4E5" />
        <path
            d="M443.547 105.728C437.735 105.728 433.024 101.02 433.024 95.2121C433.024 89.4041 437.735 84.6958 443.547 84.6958C449.359 84.6958 454.07 89.4041 454.07 95.2121C454.07 101.02 449.359 105.728 443.547 105.728Z"
            fill="#E1E4E5" />
        <path
            d="M690.46 397.005C685.989 397.005 682.365 394.108 682.365 390.534C682.365 386.961 685.989 384.063 690.46 384.063C694.93 384.063 698.554 386.961 698.554 390.534C698.554 394.108 694.93 397.005 690.46 397.005Z"
            fill="#E1E4E5" />
        <path
            d="M746.273 100.678C748.626 109.455 743.414 118.476 734.632 120.827C725.85 123.179 716.823 117.971 714.47 109.194C712.117 100.418 717.328 91.3968 726.11 89.0452C734.892 86.6936 743.919 91.9019 746.273 100.678Z"
            fill="#E1E4E5" />
        <path
            d="M791.101 421.043H791.312C792.566 438.799 805.779 439.072 805.779 439.072C805.779 439.072 791.209 439.356 791.209 459.872C791.209 439.356 776.639 439.072 776.639 439.072C776.639 439.072 789.847 438.799 791.101 421.043ZM524.271 459.785H524.459C525.572 475.855 537.295 476.102 537.295 476.102C537.295 476.102 524.367 476.359 524.367 494.927C524.367 476.359 511.439 476.102 511.439 476.102C511.439 476.102 523.159 475.855 524.271 459.785Z"
            fill="#E1E4E5" />
        <path
            d="M293.939 225.15V192.784C293.939 174.901 308.432 160.418 326.326 160.418H504.453C522.347 160.418 536.84 174.901 536.84 192.784V273.698C536.84 291.581 522.347 306.064 504.453 306.064H472.067M421.688 388.775H295.736M421.688 338.43H295.736M421.688 288.085H295.736"
            stroke="#FC4706" stroke-width="31.8" stroke-linecap="round" stroke-linejoin="round" />
        <path
            d="M270.557 451.707H446.869C460.796 451.707 472.067 440.444 472.067 426.526V250.327C472.067 236.41 460.796 225.146 446.869 225.146H270.54C256.63 225.146 245.359 236.41 245.359 250.327V426.542C245.359 440.444 256.63 451.707 270.557 451.707Z"
            stroke="#FC4706" stroke-width="31.8" stroke-linecap="round" stroke-linejoin="round" />
        <path
            d="M686.491 268.798C670.362 284.916 670.362 311.035 686.491 327.153C702.62 343.271 728.756 343.271 744.885 327.153C761.013 311.035 761.013 284.916 744.885 268.798C728.772 252.679 702.62 252.679 686.491 268.798Z"
            stroke="#FC4706" stroke-width="31.8" stroke-linecap="round" stroke-linejoin="round" />
        <path
            d="M612.457 297.973C612.457 293.425 612.862 288.894 613.413 284.493L589.122 265.51C583.746 261.286 582.273 253.761 585.69 247.838L607.291 210.504C610.708 204.597 617.947 202.106 624.294 204.63L645.994 213.336C650.301 215.068 655.11 214.339 658.997 211.782C662.354 209.566 665.836 207.546 669.425 205.73C673.571 203.659 676.599 199.872 677.263 195.292L680.567 172.183C681.522 165.435 687.319 160.418 694.153 160.418H737.227C744.045 160.418 749.841 165.435 750.813 172.183L754.149 195.325C754.797 199.888 757.809 203.659 761.921 205.747C765.52 207.589 769.013 209.631 772.383 211.864C776.253 214.405 781.046 215.084 785.337 213.369L807.069 204.63C813.417 202.089 820.671 204.581 824.072 210.504L845.674 247.838C849.107 253.761 847.633 261.302 842.257 265.51L817.967 284.493C818.518 288.894 818.939 293.425 818.939 297.973C818.939 302.504 818.534 307.051 817.967 311.453L842.257 330.436C847.633 334.66 849.107 342.185 845.69 348.107L824.088 385.441C820.671 391.348 813.433 393.84 807.085 391.316L785.337 382.593C781.046 380.861 776.253 381.557 772.399 384.114C769.03 386.349 765.538 388.392 761.938 390.232C757.809 392.319 754.813 396.073 754.149 400.653L750.83 423.779C749.858 430.511 744.061 435.528 737.243 435.528H715.69M653.199 370.798H556.038M653.199 411.255H556.038M653.199 451.711H556.038"
            stroke="#FC4706" stroke-width="31.8" stroke-linecap="round" stroke-linejoin="round" />
    </g>
    <path
        d="M403.784 568.824V556.536C403.784 555.832 403.592 555.32 403.208 555C402.824 554.616 402.216 554.424 401.384 554.424H399.944V543.096H406.184C411.304 543.096 414.856 544.184 416.84 546.36C418.824 548.536 419.816 551.416 419.816 555V568.824H403.784ZM403.784 577.56V567.576H419.816V579.096C419.816 582.68 418.824 585.56 416.84 587.736C414.856 589.912 411.304 591 406.184 591H399.944V579.672H401.384C402.216 579.672 402.824 579.512 403.208 579.192C403.592 578.808 403.784 578.264 403.784 577.56ZM396.392 556.536V568.824H380.36V555C380.36 551.416 381.352 548.536 383.336 546.36C385.32 544.184 388.872 543.096 393.992 543.096H400.232V554.424H398.792C397.96 554.424 397.352 554.616 396.968 555C396.584 555.32 396.392 555.832 396.392 556.536ZM396.392 567.576V577.56C396.392 578.264 396.584 578.808 396.968 579.192C397.352 579.512 397.96 579.672 398.792 579.672H400.232V591H393.992C388.872 591 385.32 589.912 383.336 587.736C381.352 585.56 380.36 582.68 380.36 579.096V567.576H396.392ZM443.379 542.52V577.848C443.379 578.552 443.571 579.096 443.955 579.48C444.339 579.8 444.947 579.96 445.779 579.96H448.275V591H440.691C435.571 591 431.923 589.912 429.747 587.736C427.635 585.56 426.579 582.68 426.579 579.096V541.272C426.579 537.688 427.635 534.808 429.747 532.632C431.923 530.456 435.571 529.368 440.691 529.368H448.275V540.408H445.779C444.947 540.408 444.339 540.6 443.955 540.984C443.571 541.304 443.379 541.816 443.379 542.52ZM451.539 552.408V542.52C451.539 541.816 451.347 541.304 450.963 540.984C450.579 540.6 449.971 540.408 449.139 540.408H446.643V529.368H454.227C459.347 529.368 462.963 530.456 465.075 532.632C467.251 534.808 468.339 537.688 468.339 541.272V552.408H451.539ZM451.539 577.848V568.344H468.339V579.096C468.339 582.68 467.251 585.56 465.075 587.736C462.963 589.912 459.347 591 454.227 591H446.643V579.96H449.139C449.971 579.96 450.579 579.8 450.963 579.48C451.347 579.096 451.539 578.552 451.539 577.848ZM497.534 568.824V556.536C497.534 555.832 497.342 555.32 496.958 555C496.574 554.616 495.966 554.424 495.134 554.424H493.694V543.096H499.934C505.054 543.096 508.606 544.184 510.59 546.36C512.574 548.536 513.566 551.416 513.566 555V568.824H497.534ZM497.534 577.56V567.576H513.566V579.096C513.566 582.68 512.574 585.56 510.59 587.736C508.606 589.912 505.054 591 499.934 591H493.694V579.672H495.134C495.966 579.672 496.574 579.512 496.958 579.192C497.342 578.808 497.534 578.264 497.534 577.56ZM490.142 556.536V568.824H474.11V555C474.11 551.416 475.102 548.536 477.086 546.36C479.07 544.184 482.622 543.096 487.742 543.096H493.982V554.424H492.542C491.71 554.424 491.102 554.616 490.718 555C490.334 555.32 490.142 555.832 490.142 556.536ZM490.142 567.576V577.56C490.142 578.264 490.334 578.808 490.718 579.192C491.102 579.512 491.71 579.672 492.542 579.672H493.982V591H487.742C482.622 591 479.07 589.912 477.086 587.736C475.102 585.56 474.11 582.68 474.11 579.096V567.576H490.142ZM537.129 591H520.809V543.096H536.841V552.216H537.129V591ZM560.073 591H543.753V557.208C543.753 556.504 543.561 555.992 543.177 555.672C542.793 555.288 542.185 555.096 541.353 555.096H539.721C538.889 555.096 538.249 555.32 537.801 555.768C537.353 556.216 537.129 556.952 537.129 557.976V560.568H536.553V551.928C536.553 549.24 537.289 547.096 538.761 545.496C540.297 543.896 542.569 543.096 545.577 543.096H547.305C551.849 543.096 555.113 544.184 557.097 546.36C559.081 548.536 560.073 551.416 560.073 555V591ZM608.589 591H592.557V543.096H608.589V591ZM585.357 540.216V591H569.325V538.68C569.325 535.096 570.381 532.216 572.493 530.04C574.669 527.864 578.317 526.776 583.437 526.776H589.293V538.104H587.757C586.925 538.104 586.317 538.296 585.933 538.68C585.549 539 585.357 539.512 585.357 540.216ZM599.277 543.096V555.096H564.429V543.096H599.277ZM592.557 538.104V526.776H608.589V538.104H592.557ZM615.286 566.136H631.606V574.008C631.606 574.712 631.798 575.256 632.182 575.64C632.566 575.96 633.174 576.12 634.006 576.12H635.638C636.534 576.12 637.174 575.896 637.558 575.448C638.006 575 638.23 574.264 638.23 573.24V570.648H638.806V579.288C638.806 581.976 638.038 584.12 636.502 585.72C635.03 587.32 632.79 588.12 629.782 588.12H628.054C623.51 588.12 620.246 587.032 618.262 584.856C616.278 582.68 615.286 579.8 615.286 576.216V566.136ZM631.606 567.96H615.286V555C615.286 551.416 616.278 548.536 618.262 546.36C620.246 544.184 623.51 543.096 628.054 543.096H629.782C632.79 543.096 635.03 543.896 636.502 545.496C638.038 547.096 638.806 549.24 638.806 551.928V560.568H638.23V557.976C638.23 556.952 638.006 556.216 637.558 555.768C637.174 555.32 636.534 555.096 635.638 555.096H634.006C633.174 555.096 632.566 555.288 632.182 555.672C631.798 555.992 631.606 556.504 631.606 557.208V567.96ZM638.23 589.752V587.064H654.55V591.48C654.55 595.064 653.462 597.944 651.286 600.12C649.174 602.296 645.558 603.384 640.438 603.384H617.494V591.864H635.83C636.662 591.864 637.27 591.672 637.654 591.288C638.038 590.968 638.23 590.456 638.23 589.752ZM654.55 588.12H638.23V552.216H638.518V543.096H654.55V588.12ZM682.824 578.328V574.488C682.824 573.784 682.632 573.272 682.248 572.952C681.864 572.568 681.256 572.376 680.424 572.376H674.568C669.448 572.376 665.864 571.32 663.816 569.208C661.768 567.032 660.744 564.152 660.744 560.568V555C660.744 551.416 661.8 548.536 663.912 546.36C666.088 544.184 669.736 543.096 674.856 543.096H683.784C688.904 543.096 692.52 544.184 694.632 546.36C696.808 548.536 697.896 551.416 697.896 555V559.032H682.344V555.768C682.344 555.064 682.152 554.552 681.768 554.232C681.384 553.848 680.776 553.656 679.944 553.656H678.984C678.152 553.656 677.544 553.848 677.16 554.232C676.776 554.552 676.584 555.064 676.584 555.768V559.992C676.584 560.696 676.776 561.24 677.16 561.624C677.544 561.944 678.152 562.104 678.984 562.104H684.84C689.96 562.104 693.544 563.16 695.592 565.272C697.64 567.384 698.664 570.232 698.664 573.816V579.096C698.664 582.68 697.576 585.56 695.4 587.736C693.288 589.912 689.672 591 684.552 591H675.144C670.024 591 666.376 589.912 664.2 587.736C662.088 585.56 661.032 582.68 661.032 579.096V575.16H676.872V578.328C676.872 579.032 677.064 579.576 677.448 579.96C677.832 580.28 678.44 580.44 679.272 580.44H680.424C681.256 580.44 681.864 580.28 682.248 579.96C682.632 579.576 682.824 579.032 682.824 578.328Z"
        fill="#232323" />
    <circle cx="75.5" cy="74.5" r="56.5" fill="#FC4706" />
    <path
        d="M55.6409 56.5402C51.9589 53.2079 46.1497 53.4625 43.8319 57.8545C41.9401 61.4392 40.6577 65.3371 40.0596 69.3896C39.0208 76.427 40.0923 83.6144 43.1384 90.043C46.1845 96.4715 51.0685 101.852 57.1727 105.505C63.2769 109.158 70.3273 110.919 77.4321 110.564C84.537 110.21 91.3773 107.757 97.088 103.515C102.799 99.2737 107.123 93.4339 109.515 86.7343C111.907 80.0347 112.258 72.7764 110.525 65.8771C109.527 61.9042 107.863 58.1532 105.624 54.7744C102.881 50.6346 97.0752 50.959 93.7428 54.641V54.641C90.4105 58.323 90.9907 64.036 92.6243 68.7257C92.7995 69.2284 92.9527 69.7401 93.0831 70.2593C93.9498 73.709 93.7742 77.3381 92.5783 80.6879C91.3824 84.0377 89.2201 86.9577 86.3647 89.0785C83.5094 91.1994 80.0892 92.4259 76.5368 92.603C72.9844 92.78 69.4592 91.8997 66.4071 90.0733C63.355 88.2469 60.913 85.5565 59.3899 82.3423C57.8669 79.128 57.3312 75.5343 57.8505 72.0156C57.9287 71.4859 58.0303 70.9616 58.1545 70.4439C59.3137 65.615 59.3229 59.8726 55.6409 56.5402V56.5402Z"
        fill="white" />
    <path
        d="M57.5893 54.5966C54.266 50.9065 54.5349 45.0978 58.9326 42.7908C63.5224 40.3831 68.6108 38.9789 73.8581 38.7184C79.1054 38.4579 84.3079 39.3512 89.1136 41.2925C93.7182 43.1526 94.5611 48.906 91.6196 52.9072V52.9072C88.6781 56.9084 82.9644 57.482 78.0428 56.8189C76.9579 56.6727 75.8558 56.6251 74.7498 56.68C73.6438 56.7349 72.5518 56.8914 71.4868 57.1443C66.6551 58.2917 60.9126 58.2868 57.5893 54.5966V54.5966Z"
        fill="#893405" />
    <defs>
        <linearGradient id="paint0_linear_1178_2" x1="781.414" y1="344.161" x2="974.856"
            y2="191.049" gradientUnits="userSpaceOnUse">
            <stop stop-color="white" />
            <stop offset="1" stop-color="#EEEEEE" />
        </linearGradient>
        <linearGradient id="paint1_linear_1178_2" x1="337.831" y1="432.408" x2="91.2817"
            y2="203.184" gradientUnits="userSpaceOnUse">
            <stop stop-color="white" />
            <stop offset="1" stop-color="#EEEEEE" />
        </linearGradient>
        <clipPath id="clip0_1178_2">
            <rect width="773" height="515" fill="white" transform="translate(153 35)" />
        </clipPath>
    </defs>
</svg>